G04 #@! TF.GenerationSoftware,KiCad,Pcbnew,6.0.7-f9a2dced07~116~ubuntu22.04.1*
G04 #@! TF.CreationDate,2022-09-04T10:06:15-07:00*
G04 #@! TF.ProjectId,keypad-frame,6b657970-6164-42d6-9672-616d652e6b69,May2021*
G04 #@! TF.SameCoordinates,Original*
G04 #@! TF.FileFunction,Profile,NP*
%FSLAX46Y46*%
G04 Gerber Fmt 4.6, Leading zero omitted, Abs format (unit mm)*
G04 Created by KiCad (PCBNEW 6.0.7-f9a2dced07~116~ubuntu22.04.1) date 2022-09-04 10:06:15*
%MOMM*%
%LPD*%
G01*
G04 APERTURE LIST*
G04 #@! TA.AperFunction,Profile*
%ADD10C,0.050000*%
G04 #@! TD*
G04 #@! TA.AperFunction,Profile*
%ADD11C,0.120000*%
G04 #@! TD*
G04 APERTURE END LIST*
D10*
X91400000Y-112000000D02*
G75*
G03*
X97400000Y-118000000I6000000J0D01*
G01*
X97400000Y-118000000D02*
X235600000Y-118000000D01*
X241600000Y-59800000D02*
G75*
G03*
X235600000Y-53800000I-6000000J0D01*
G01*
X241600000Y-112000000D02*
X241600000Y-59800000D01*
X97400000Y-53800000D02*
G75*
G03*
X91400000Y-59800000I0J-6000000D01*
G01*
X235600000Y-53800000D02*
X97400000Y-53800000D01*
X91400000Y-59800000D02*
X91400000Y-112000000D01*
X235600000Y-118000000D02*
G75*
G03*
X241600000Y-112000000I0J6000000D01*
G01*
D11*
G04 #@! TO.C,SW7*
X220900000Y-106900000D02*
X207100000Y-106900000D01*
X207100000Y-93100000D02*
X207100000Y-106900000D01*
X207100000Y-93100000D02*
X220900000Y-93100000D01*
X220900000Y-93100000D02*
X220900000Y-106900000D01*
G04 #@! TO.C,SW6*
X201900000Y-106900000D02*
X188100000Y-106900000D01*
X188100000Y-93100000D02*
X188100000Y-106900000D01*
X188100000Y-93100000D02*
X201900000Y-93100000D01*
X201900000Y-93100000D02*
X201900000Y-106900000D01*
G04 #@! TO.C,SW5*
X182900000Y-106900000D02*
X169100000Y-106900000D01*
X169100000Y-93100000D02*
X169100000Y-106900000D01*
X169100000Y-93100000D02*
X182900000Y-93100000D01*
X182900000Y-93100000D02*
X182900000Y-106900000D01*
G04 #@! TO.C,SW4*
X163900000Y-106900000D02*
X150100000Y-106900000D01*
X150100000Y-93100000D02*
X150100000Y-106900000D01*
X150100000Y-93100000D02*
X163900000Y-93100000D01*
X163900000Y-93100000D02*
X163900000Y-106900000D01*
G04 #@! TO.C,SW3*
X144900000Y-106900000D02*
X131100000Y-106900000D01*
X131100000Y-93100000D02*
X131100000Y-106900000D01*
X131100000Y-93100000D02*
X144900000Y-93100000D01*
X144900000Y-93100000D02*
X144900000Y-106900000D01*
G04 #@! TO.C,SW2*
X125900000Y-106900000D02*
X112100000Y-106900000D01*
X112100000Y-93100000D02*
X112100000Y-106900000D01*
X112100000Y-93100000D02*
X125900000Y-93100000D01*
X125900000Y-93100000D02*
X125900000Y-106900000D01*
G04 #@! TO.C,U3*
X126250000Y-62674000D02*
X126250000Y-60174000D01*
X111750000Y-62674000D02*
X126250000Y-62674000D01*
X111750000Y-62674000D02*
X111750000Y-60174000D01*
X126250000Y-60174000D02*
X111750000Y-60174000D01*
G04 #@! TO.C,U4*
X145250000Y-62674000D02*
X145250000Y-60174000D01*
X130750000Y-62674000D02*
X145250000Y-62674000D01*
X145250000Y-60174000D02*
X130750000Y-60174000D01*
X130750000Y-62674000D02*
X130750000Y-60174000D01*
G04 #@! TO.C,U6*
X183250000Y-60174000D02*
X168750000Y-60174000D01*
X168750000Y-62674000D02*
X183250000Y-62674000D01*
X168750000Y-62674000D02*
X168750000Y-60174000D01*
X183250000Y-62674000D02*
X183250000Y-60174000D01*
G04 #@! TO.C,U7*
X202250000Y-60174000D02*
X187750000Y-60174000D01*
X202250000Y-62674000D02*
X202250000Y-60174000D01*
X187750000Y-62674000D02*
X202250000Y-62674000D01*
X187750000Y-62674000D02*
X187750000Y-60174000D01*
G04 #@! TO.C,U8*
X206750000Y-62674000D02*
X206750000Y-60174000D01*
X221250000Y-62674000D02*
X221250000Y-60174000D01*
X221250000Y-60174000D02*
X206750000Y-60174000D01*
X206750000Y-62674000D02*
X221250000Y-62674000D01*
G04 #@! TO.C,U5*
X164250000Y-60174000D02*
X149750000Y-60174000D01*
X164250000Y-62674000D02*
X164250000Y-60174000D01*
X149750000Y-62674000D02*
X164250000Y-62674000D01*
X149750000Y-62674000D02*
X149750000Y-60174000D01*
G04 #@! TD*
M02*
