G04 #@! TF.GenerationSoftware,KiCad,Pcbnew,6.0.7-f9a2dced07~116~ubuntu22.04.1*
G04 #@! TF.CreationDate,2022-09-04T10:12:19-07:00*
G04 #@! TF.ProjectId,keypad-base-rp2040,6b657970-6164-42d6-9261-73652d727032,Jun2021*
G04 #@! TF.SameCoordinates,PX55fe290PY71d9820*
G04 #@! TF.FileFunction,Paste,Bot*
G04 #@! TF.FilePolarity,Positive*
%FSLAX46Y46*%
G04 Gerber Fmt 4.6, Leading zero omitted, Abs format (unit mm)*
G04 Created by KiCad (PCBNEW 6.0.7-f9a2dced07~116~ubuntu22.04.1) date 2022-09-04 10:12:19*
%MOMM*%
%LPD*%
G01*
G04 APERTURE LIST*
G04 Aperture macros list*
%AMRoundRect*
0 Rectangle with rounded corners*
0 $1 Rounding radius*
0 $2 $3 $4 $5 $6 $7 $8 $9 X,Y pos of 4 corners*
0 Add a 4 corners polygon primitive as box body*
4,1,4,$2,$3,$4,$5,$6,$7,$8,$9,$2,$3,0*
0 Add four circle primitives for the rounded corners*
1,1,$1+$1,$2,$3*
1,1,$1+$1,$4,$5*
1,1,$1+$1,$6,$7*
1,1,$1+$1,$8,$9*
0 Add four rect primitives between the rounded corners*
20,1,$1+$1,$2,$3,$4,$5,0*
20,1,$1+$1,$4,$5,$6,$7,0*
20,1,$1+$1,$6,$7,$8,$9,0*
20,1,$1+$1,$8,$9,$2,$3,0*%
G04 Aperture macros list end*
%ADD10R,0.900000X0.900000*%
%ADD11R,1.200000X0.600000*%
%ADD12R,0.400000X4.000000*%
%ADD13R,1.750000X0.300000*%
%ADD14O,2.100000X0.900000*%
%ADD15O,1.600000X1.000000*%
%ADD16RoundRect,0.147500X0.172500X-0.147500X0.172500X0.147500X-0.172500X0.147500X-0.172500X-0.147500X0*%
%ADD17RoundRect,0.147500X-0.172500X0.147500X-0.172500X-0.147500X0.172500X-0.147500X0.172500X0.147500X0*%
%ADD18RoundRect,0.147500X-0.017678X0.226274X-0.226274X0.017678X0.017678X-0.226274X0.226274X-0.017678X0*%
%ADD19RoundRect,0.218750X0.218750X0.256250X-0.218750X0.256250X-0.218750X-0.256250X0.218750X-0.256250X0*%
%ADD20RoundRect,0.147500X0.147500X0.172500X-0.147500X0.172500X-0.147500X-0.172500X0.147500X-0.172500X0*%
%ADD21RoundRect,0.147500X-0.147500X-0.172500X0.147500X-0.172500X0.147500X0.172500X-0.147500X0.172500X0*%
%ADD22R,1.400000X1.200000*%
%ADD23R,0.950000X2.150000*%
%ADD24R,3.250000X2.150000*%
%ADD25RoundRect,0.147500X0.226274X0.017678X0.017678X0.226274X-0.226274X-0.017678X-0.017678X-0.226274X0*%
%ADD26R,2.997200X0.762000*%
%ADD27RoundRect,0.218750X-0.218750X-0.256250X0.218750X-0.256250X0.218750X0.256250X-0.218750X0.256250X0*%
%ADD28RoundRect,0.243750X-0.243750X-0.456250X0.243750X-0.456250X0.243750X0.456250X-0.243750X0.456250X0*%
%ADD29R,0.600000X1.200000*%
%ADD30R,0.800000X0.900000*%
%ADD31RoundRect,0.250000X-0.413257X0.000000X0.000000X-0.413257X0.413257X0.000000X0.000000X0.413257X0*%
%ADD32RoundRect,0.050000X-0.309359X0.238649X0.238649X-0.309359X0.309359X-0.238649X-0.238649X0.309359X0*%
%ADD33RoundRect,0.050000X-0.309359X-0.238649X-0.238649X-0.309359X0.309359X0.238649X0.238649X0.309359X0*%
%ADD34RoundRect,0.150000X-0.150000X0.650000X-0.150000X-0.650000X0.150000X-0.650000X0.150000X0.650000X0*%
G04 APERTURE END LIST*
D10*
G04 #@! TO.C,SW8*
X148380000Y45180000D03*
X148380000Y41780000D03*
D11*
X150430000Y41180000D03*
X150430000Y45780000D03*
G04 #@! TD*
D10*
G04 #@! TO.C,SW7*
X148380000Y25180000D03*
X148380000Y21780000D03*
D11*
X150430000Y21180000D03*
X150430000Y25780000D03*
G04 #@! TD*
D12*
G04 #@! TO.C,U3*
X33030000Y46956000D03*
X32330000Y46956000D03*
X31630000Y46956000D03*
X30930000Y46956000D03*
X30230000Y46956000D03*
X29530000Y46956000D03*
X28830000Y46956000D03*
X28130000Y46956000D03*
X27430000Y46956000D03*
X26730000Y46956000D03*
X26030000Y46956000D03*
X25330000Y46956000D03*
X24630000Y46956000D03*
G04 #@! TD*
G04 #@! TO.C,U4*
X52030000Y46956000D03*
X51330000Y46956000D03*
X50630000Y46956000D03*
X49930000Y46956000D03*
X49230000Y46956000D03*
X48530000Y46956000D03*
X47830000Y46956000D03*
X47130000Y46956000D03*
X46430000Y46956000D03*
X45730000Y46956000D03*
X45030000Y46956000D03*
X44330000Y46956000D03*
X43630000Y46956000D03*
G04 #@! TD*
G04 #@! TO.C,U5*
X71030000Y46956000D03*
X70330000Y46956000D03*
X69630000Y46956000D03*
X68930000Y46956000D03*
X68230000Y46956000D03*
X67530000Y46956000D03*
X66830000Y46956000D03*
X66130000Y46956000D03*
X65430000Y46956000D03*
X64730000Y46956000D03*
X64030000Y46956000D03*
X63330000Y46956000D03*
X62630000Y46956000D03*
G04 #@! TD*
G04 #@! TO.C,U7*
X109030000Y46956000D03*
X108330000Y46956000D03*
X107630000Y46956000D03*
X106930000Y46956000D03*
X106230000Y46956000D03*
X105530000Y46956000D03*
X104830000Y46956000D03*
X104130000Y46956000D03*
X103430000Y46956000D03*
X102730000Y46956000D03*
X102030000Y46956000D03*
X101330000Y46956000D03*
X100630000Y46956000D03*
G04 #@! TD*
G04 #@! TO.C,U8*
X128030000Y46956000D03*
X127330000Y46956000D03*
X126630000Y46956000D03*
X125930000Y46956000D03*
X125230000Y46956000D03*
X124530000Y46956000D03*
X123830000Y46956000D03*
X123130000Y46956000D03*
X122430000Y46956000D03*
X121730000Y46956000D03*
X121030000Y46956000D03*
X120330000Y46956000D03*
X119630000Y46956000D03*
G04 #@! TD*
D13*
G04 #@! TO.C,J1*
X7980000Y33130000D03*
X7980000Y33930000D03*
X7980000Y35230000D03*
X7980000Y36230000D03*
X7980000Y36730000D03*
X7980000Y37730000D03*
X7980000Y39030000D03*
X7980000Y39830000D03*
X7980000Y39530000D03*
X7980000Y38730000D03*
X7980000Y38230000D03*
X7980000Y37230000D03*
X7980000Y35730000D03*
X7980000Y34730000D03*
X7980000Y34230000D03*
X7980000Y33430000D03*
D14*
X7140000Y40800000D03*
D15*
X2960000Y32160000D03*
X2960000Y40800000D03*
D14*
X7140000Y32160000D03*
G04 #@! TD*
D12*
G04 #@! TO.C,U6*
X90030000Y46956000D03*
X89330000Y46956000D03*
X88630000Y46956000D03*
X87930000Y46956000D03*
X87230000Y46956000D03*
X86530000Y46956000D03*
X85830000Y46956000D03*
X85130000Y46956000D03*
X84430000Y46956000D03*
X83730000Y46956000D03*
X83030000Y46956000D03*
X82330000Y46956000D03*
X81630000Y46956000D03*
G04 #@! TD*
D16*
G04 #@! TO.C,R9*
X39370000Y46505000D03*
X39370000Y47475000D03*
G04 #@! TD*
D17*
G04 #@! TO.C,C13*
X77724000Y30711000D03*
X77724000Y29741000D03*
G04 #@! TD*
D18*
G04 #@! TO.C,C14*
X71310547Y32346947D03*
X70624653Y31661053D03*
G04 #@! TD*
D19*
G04 #@! TO.C,R3*
X17297500Y35560000D03*
X15722500Y35560000D03*
G04 #@! TD*
D20*
G04 #@! TO.C,C8*
X62511800Y34391600D03*
X61541800Y34391600D03*
G04 #@! TD*
D19*
G04 #@! TO.C,R4*
X17297500Y37084000D03*
X15722500Y37084000D03*
G04 #@! TD*
D20*
G04 #@! TO.C,C21*
X102339000Y43434000D03*
X101369000Y43434000D03*
G04 #@! TD*
D16*
G04 #@! TO.C,R12*
X96774000Y46505000D03*
X96774000Y47475000D03*
G04 #@! TD*
D20*
G04 #@! TO.C,C19*
X64493000Y43434000D03*
X63523000Y43434000D03*
G04 #@! TD*
G04 #@! TO.C,C17*
X45697000Y43434000D03*
X44727000Y43434000D03*
G04 #@! TD*
D21*
G04 #@! TO.C,C12*
X80795000Y33782000D03*
X81765000Y33782000D03*
G04 #@! TD*
D17*
G04 #@! TO.C,C1*
X83820000Y41506000D03*
X83820000Y40536000D03*
G04 #@! TD*
D22*
G04 #@! TO.C,X1*
X85615600Y41109000D03*
X87815600Y41109000D03*
X87815600Y39409000D03*
X85615600Y39409000D03*
G04 #@! TD*
D20*
G04 #@! TO.C,R16*
X40363000Y64262000D03*
X39393000Y64262000D03*
G04 #@! TD*
G04 #@! TO.C,C20*
X80876000Y43942000D03*
X79906000Y43942000D03*
G04 #@! TD*
G04 #@! TO.C,C6*
X70589000Y37592000D03*
X69619000Y37592000D03*
G04 #@! TD*
D21*
G04 #@! TO.C,R7*
X142771000Y39116000D03*
X143741000Y39116000D03*
G04 #@! TD*
D20*
G04 #@! TO.C,R15*
X135105000Y46736000D03*
X134135000Y46736000D03*
G04 #@! TD*
G04 #@! TO.C,C10*
X137518000Y31242000D03*
X136548000Y31242000D03*
G04 #@! TD*
D23*
G04 #@! TO.C,VR1*
X16016000Y47392000D03*
X13716000Y47392000D03*
X11416000Y47392000D03*
D24*
X13716000Y53192000D03*
G04 #@! TD*
D17*
G04 #@! TO.C,C18*
X18288000Y53571000D03*
X18288000Y52601000D03*
G04 #@! TD*
D25*
G04 #@! TO.C,C7*
X73393347Y40855853D03*
X72707453Y41541747D03*
G04 #@! TD*
D16*
G04 #@! TO.C,R13*
X115570000Y46505000D03*
X115570000Y47475000D03*
G04 #@! TD*
D26*
G04 #@! TO.C,J3*
X141224000Y31242000D03*
X144780000Y31242000D03*
X141224000Y32512000D03*
X144780000Y32512000D03*
X141224000Y33782000D03*
X144780000Y33782000D03*
X141224000Y35052000D03*
X144780000Y35052000D03*
X141224000Y36322000D03*
X144780000Y36322000D03*
G04 #@! TD*
D21*
G04 #@! TO.C,R2*
X11199000Y34036000D03*
X12169000Y34036000D03*
G04 #@! TD*
D16*
G04 #@! TO.C,R10*
X59182000Y46505000D03*
X59182000Y47475000D03*
G04 #@! TD*
D27*
G04 #@! TO.C,C9*
X10642500Y40894000D03*
X12217500Y40894000D03*
G04 #@! TD*
D28*
G04 #@! TO.C,D1*
X35638500Y64262000D03*
X37513500Y64262000D03*
G04 #@! TD*
D21*
G04 #@! TO.C,C11*
X80541000Y40386000D03*
X81511000Y40386000D03*
G04 #@! TD*
D18*
G04 #@! TO.C,C3*
X69278547Y32600947D03*
X68592653Y31915053D03*
G04 #@! TD*
D17*
G04 #@! TO.C,C5*
X74422000Y30965000D03*
X74422000Y29995000D03*
G04 #@! TD*
D20*
G04 #@! TO.C,R14*
X33403400Y59842400D03*
X32433400Y59842400D03*
G04 #@! TD*
D10*
G04 #@! TO.C,SW9*
X29034000Y62550000D03*
X32434000Y62550000D03*
D29*
X28434000Y64600000D03*
X33034000Y64600000D03*
G04 #@! TD*
D20*
G04 #@! TO.C,C15*
X26647000Y43434000D03*
X25677000Y43434000D03*
G04 #@! TD*
D21*
G04 #@! TO.C,R5*
X11961000Y38354000D03*
X12931000Y38354000D03*
G04 #@! TD*
D16*
G04 #@! TO.C,R11*
X77851000Y45235000D03*
X77851000Y46205000D03*
G04 #@! TD*
D21*
G04 #@! TO.C,C4*
X81049000Y39370000D03*
X82019000Y39370000D03*
G04 #@! TD*
D16*
G04 #@! TO.C,C16*
X9652000Y48791000D03*
X9652000Y49761000D03*
G04 #@! TD*
G04 #@! TO.C,R6*
X21082000Y46505000D03*
X21082000Y47475000D03*
G04 #@! TD*
D17*
G04 #@! TO.C,C23*
X75438000Y30711000D03*
X75438000Y29741000D03*
G04 #@! TD*
D21*
G04 #@! TO.C,R1*
X83081000Y39116000D03*
X84051000Y39116000D03*
G04 #@! TD*
D16*
G04 #@! TO.C,C2*
X89662000Y39774000D03*
X89662000Y40744000D03*
G04 #@! TD*
D20*
G04 #@! TO.C,C22*
X121643000Y43434000D03*
X120673000Y43434000D03*
G04 #@! TD*
G04 #@! TO.C,R8*
X35537000Y59842400D03*
X34567000Y59842400D03*
G04 #@! TD*
D30*
G04 #@! TO.C,Q1*
X135570000Y48276000D03*
X133670000Y48276000D03*
X134620000Y50276000D03*
G04 #@! TD*
D31*
G04 #@! TO.C,U1*
X76584000Y35674439D03*
X77485561Y36576000D03*
X75682439Y36576000D03*
X76584000Y37477561D03*
D32*
X72314843Y37168202D03*
X72597686Y37451045D03*
X72880528Y37733887D03*
X73163371Y38016730D03*
X73446214Y38299573D03*
X73729056Y38582415D03*
X74011899Y38865258D03*
X74294742Y39148101D03*
X74577585Y39430944D03*
X74860427Y39713786D03*
X75143270Y39996629D03*
X75426113Y40279472D03*
X75708955Y40562314D03*
X75991798Y40845157D03*
D33*
X77176202Y40845157D03*
X77459045Y40562314D03*
X77741887Y40279472D03*
X78024730Y39996629D03*
X78307573Y39713786D03*
X78590415Y39430944D03*
X78873258Y39148101D03*
X79156101Y38865258D03*
X79438944Y38582415D03*
X79721786Y38299573D03*
X80004629Y38016730D03*
X80287472Y37733887D03*
X80570314Y37451045D03*
X80853157Y37168202D03*
D32*
X80853157Y35983798D03*
X80570314Y35700955D03*
X80287472Y35418113D03*
X80004629Y35135270D03*
X79721786Y34852427D03*
X79438944Y34569585D03*
X79156101Y34286742D03*
X78873258Y34003899D03*
X78590415Y33721056D03*
X78307573Y33438214D03*
X78024730Y33155371D03*
X77741887Y32872528D03*
X77459045Y32589686D03*
X77176202Y32306843D03*
D33*
X75991798Y32306843D03*
X75708955Y32589686D03*
X75426113Y32872528D03*
X75143270Y33155371D03*
X74860427Y33438214D03*
X74577585Y33721056D03*
X74294742Y34003899D03*
X74011899Y34286742D03*
X73729056Y34569585D03*
X73446214Y34852427D03*
X73163371Y35135270D03*
X72880528Y35418113D03*
X72597686Y35700955D03*
X72314843Y35983798D03*
G04 #@! TD*
D34*
G04 #@! TO.C,U11*
X64033400Y41598400D03*
X65303400Y41598400D03*
X66573400Y41598400D03*
X67843400Y41598400D03*
X67843400Y34398400D03*
X66573400Y34398400D03*
X65303400Y34398400D03*
X64033400Y34398400D03*
G04 #@! TD*
M02*
