M48
; DRILL file {KiCad 6.0.7-f9a2dced07~116~ubuntu22.04.1} date Sun 04 Sep 2022 10:12:16 AM
; FORMAT={-:-/ absolute / metric / decimal}
; #@! TF.CreationDate,2022-09-04T10:12:16-07:00
; #@! TF.GenerationSoftware,Kicad,Pcbnew,6.0.7-f9a2dced07~116~ubuntu22.04.1
; #@! TF.FileFunction,MixedPlating,1,2
FMAT,2
METRIC
; #@! TA.AperFunction,Plated,PTH,ComponentDrill
T1C0.350
; #@! TA.AperFunction,Plated,PTH,ViaDrill
T2C0.400
; #@! TA.AperFunction,Plated,PTH,ComponentDrill
T3C0.500
; #@! TA.AperFunction,Plated,PTH,ComponentDrill
T4C0.600
; #@! TA.AperFunction,Plated,PTH,ComponentDrill
T5C3.050
; #@! TA.AperFunction,Plated,PTH,ComponentDrill
T6C4.500
; #@! TA.AperFunction,Plated,PTH,ViaDrill
T7C4.800
; #@! TA.AperFunction,NonPlated,NPTH,ComponentDrill
T8C0.650
; #@! TA.AperFunction,NonPlated,NPTH,ComponentDrill
T9C0.700
; #@! TA.AperFunction,NonPlated,NPTH,ComponentDrill
T10C1.700
; #@! TA.AperFunction,NonPlated,NPTH,ComponentDrill
T11C4.100
%
G90
G05
T1
X74.781Y36.576
X75.682Y37.478
X75.682Y35.674
X76.584Y38.379
X76.584Y36.576
X76.584Y34.773
X77.486Y37.478
X77.486Y35.674
X78.387Y36.576
T2
X8.382Y47.498
X8.89Y31.75
X9.287Y39.846
X9.525Y34.099
X9.779Y38.862
X20.066Y54.864
X21.082Y56.388
X24.689Y43.434
X25.146Y58.166
X26.67Y54.864
X28.143Y44.145
X28.321Y49.911
X29.49Y50.381
X30.205Y51.308
X30.734Y52.324
X31.242Y53.34
X35.56Y54.864
X40.386Y56.388
X42.545Y48.805
X43.688Y43.434
X44.196Y58.166
X45.466Y54.864
X47.142Y44.145
X47.752Y49.403
X48.505Y50.184
X49.022Y51.308
X49.53Y52.324
X50.038Y53.34
X57.658Y54.864
X59.261Y56.381
X60.554Y34.392
X62.357Y43.434
X62.681Y57.5
X62.738Y61.468
X64.262Y54.864
X66.142Y44.145
X67.505Y50.184
X67.564Y39.878
X67.818Y51.308
X68.326Y52.324
X69.035Y53.186
X69.596Y31.394
X69.977Y38.862
X70.714Y44.094
X71.577Y41.605
X71.628Y54.864
X71.933Y43.993
X72.288Y32.309
X73.029Y48.641
X73.279Y29.845
X73.298Y36.684
X73.355Y40.03
X73.787Y49.403
X75.332Y31.39
X75.339Y50.184
X75.438Y51.308
X76.581Y39.624
X76.813Y30.59
X76.835Y54.864
X77.851Y56.388
X77.851Y42.418
X78.105Y38.354
X78.74Y43.688
X79.867Y36.687
X81.567Y36.679
X81.788Y32.862
X81.915Y35.56
X82.999Y40.987
X83.058Y54.864
X83.312Y37.973
X83.312Y32.131
X83.82Y28.321
X84.074Y58.166
X84.201Y36.957
X85.141Y49.682
X85.471Y35.941
X86.505Y50.184
X87.122Y51.308
X87.63Y52.324
X88.138Y53.34
X89.408Y32.766
X90.551Y40.767
X93.345Y54.864
X93.345Y43.561
X93.345Y38.1
X94.996Y43.815
X94.996Y39.878
X96.774Y56.388
X99.06Y48.895
X100.33Y43.434
X101.092Y58.166
X102.362Y54.864
X104.038Y44.196
X105.302Y50.184
X105.918Y51.308
X106.426Y52.324
X107.442Y53.34
X115.57Y56.388
X118.11Y48.895
X119.634Y43.434
X120.396Y58.166
X121.666Y54.864
X123.038Y44.247
X124.505Y50.184
X125.205Y51.308
X125.73Y52.324
X126.238Y53.34
X133.096Y46.736
X134.62Y52.07
X135.509Y31.242
X138.938Y36.322
X138.938Y33.782
X138.938Y32.512
X147.193Y33.528
X147.193Y31.496
T5
X26.29Y24.46
X32.64Y21.92
X45.29Y24.46
X51.64Y21.92
X64.29Y24.46
X70.64Y21.92
X83.29Y24.46
X89.64Y21.92
X102.29Y24.46
X108.64Y21.92
X121.29Y24.46
X127.64Y21.92
T6
X17.33Y59.48
X17.33Y7.48
X135.33Y59.48
X135.33Y7.48
T7
X7.33Y59.48
X7.33Y7.48
X145.33Y59.48
X145.33Y7.48
T8
X6.64Y39.37
X6.64Y33.59
T9
X29.884Y64.0
X31.584Y64.0
X149.83Y44.33
X149.83Y42.63
X149.83Y24.33
X149.83Y22.63
T10
X23.75Y19.38
X33.91Y19.38
X42.75Y19.38
X52.91Y19.38
X61.75Y19.38
X71.91Y19.38
X80.75Y19.38
X90.91Y19.38
X99.75Y19.38
X109.91Y19.38
X118.75Y19.38
X128.91Y19.38
T11
X28.83Y19.38
X47.83Y19.38
X66.83Y19.38
X85.83Y19.38
X104.83Y19.38
X123.83Y19.38
T3
G00X6.54Y40.8
M15
G01X7.74Y40.8
M16
G05
G00X6.54Y32.16
M15
G01X7.74Y32.16
M16
G05
T4
G00X2.66Y40.8
M15
G01X3.26Y40.8
M16
G05
G00X2.66Y32.16
M15
G01X3.26Y32.16
M16
G05
T0
M30
